<?xml version="1.0" standalone="no"?>
<!DOCTYPE svg PUBLIC "-//W3C//DTD SVG 20010904//EN"
 "http://www.w3.org/TR/2001/REC-SVG-20010904/DTD/svg10.dtd">
<svg version="1.0" xmlns="http://www.w3.org/2000/svg"
 width="800.000000pt" height="800.000000pt" viewBox="0 0 800.000000 800.000000"
 preserveAspectRatio="xMidYMid meet">
<metadata>
Created by potrace 1.14, written by Peter Selinger 2001-2017
</metadata>
<g transform="translate(0.000000,800.000000) scale(0.100000,-0.100000)"
fill="#000000" stroke="none">
<path d="M3561 6690 c-123 -33 -237 -63 -252 -69 -30 -10 -213 -149 -328 -249
l-74 -64 -81 7 c-65 6 -87 12 -110 32 -16 13 -36 23 -45 20 -9 -2 -91 -26
-183 -52 l-168 -49 -412 -785 c-340 -649 -411 -792 -409 -821 7 -115 173
-1525 180 -1530 5 -3 54 -36 110 -75 l102 -70 -28 -24 c-15 -13 -58 -52 -95
-86 l-68 -62 740 -567 740 -566 153 -36 c83 -20 156 -40 161 -45 6 -5 27 -63
48 -130 20 -67 39 -124 41 -126 4 -3 538 127 729 178 26 6 89 54 203 153 l167
144 181 7 182 7 205 120 c113 66 287 174 386 240 l182 120 15 61 c10 38 134
302 322 682 l306 619 -81 235 c-50 148 -80 251 -80 277 0 38 2 42 31 48 17 3
53 6 79 6 58 0 48 -38 95 346 l36 291 -79 77 c-69 67 -111 95 -313 210 l-234
134 -30 -34 -30 -34 -46 47 -46 48 -63 274 c-50 218 -67 279 -84 294 -11 10
-131 92 -266 182 -209 139 -253 173 -299 229 -40 49 -63 68 -90 76 -20 5 -88
23 -150 39 l-115 30 -115 -74 c-64 -41 -170 -110 -235 -154 l-120 -80 -85 78
c-172 157 -189 180 -271 363 -41 92 -77 167 -80 167 -3 0 -106 -27 -229 -59z
m602 -680 c61 -29 127 -95 158 -157 20 -40 24 -63 24 -143 0 -84 -3 -101 -27
-145 -32 -60 -97 -124 -158 -156 -38 -20 -60 -24 -140 -24 -85 0 -101 3 -148
28 -110 58 -172 152 -180 274 -10 154 74 285 218 337 65 23 189 17 253 -14z
m-613 -1335 l0 -485 470 0 470 0 0 485 0 485 325 0 325 0 0 -1255 0 -1255
-325 0 -325 0 0 515 0 515 -470 0 -470 0 0 -515 0 -515 -330 0 -330 0 0 1255
0 1255 330 0 330 0 0 -485z"/>
</g>
</svg>
